<svg data-name="Layer 1" xmlns="http://www.w3.org/2000/svg" viewBox="0 0 1000 1000"><path d="M756.3 598.28l101.77-3.59.19-1.07-87.12-53.19.59-2 191.5-39.71-.06-.75-191.76-38.78-.25-2L858.22 403l-.45-1.09-101.27-2.6-.38-1.93 144.51-129-.56-1.24-184.86 61.12-.85-1.48 48.43-89.89-.92-.7-90 48.43-1.22-1.27 61.19-184.9-1-.55-130.16 147-1.17-.73L597 141.06l-1.17-.32-53.05 87-1.92-.45L501 35.71l-.81.07-39.84 191.76-2 .16L405 140l-.87.32-3.53 103.48-1.53.75L269.2 98.05l-1 .81 62.38 184.92-1 1-90.32-48.7-.79.81L287 327l-1.35 1.16L99.53 267l-.64 1 146.73 130.14-.67 1.22-101.71 2.5-.35 1.09 86 54.33-.25 2L37.72 497.7l.15 1.15 190.94 39.73v1.95l-86.11 53.15.49 1 101.85 3.59.61 1.56L98.8 729.86l.65.93 186-61.2 1.16 1.36-47.9 88.45 1.11.68 89.07-48 1.54 1.39-62.5 186.25 1 .39 130-146.81 1.67.85 3.55 101.55 1.22.13 53.34-86.32 1.52.22 40 192 .94.1 39.81-192 1.63-.31L595.88 856l1.11-.28 2.48-101.68 1.7-.64 129.92 146.69.83-.56-61.17-186.29 1.39-1.26 89.94 48.51.61-.9-48-88.08 1.43-1.75 183.82 60.81.63-1.26-145-129.52zm-255.71 122.8c-121.64 0-220.24-98.61-220.24-220.24S379 280.6 500.59 280.6s220.24 98.6 220.24 220.24-98.6 220.24-220.24 220.24z"/></svg>